G04 (created by PCBNEW (2013-mar-13)-testing) date Fri 10 Jan 2014 07:03:49 PM PST*
%MOIN*%
G04 Gerber Fmt 3.4, Leading zero omitted, Abs format*
%FSLAX34Y34*%
G01*
G70*
G90*
G04 APERTURE LIST*
%ADD10C,0.005906*%
%ADD11C,0.011811*%
G04 APERTURE END LIST*
G54D10*
G54D11*
X49845Y-48267D02*
X50154Y-47873D01*
X49845Y-47873D02*
X50154Y-48267D01*
X50845Y-48267D02*
X51154Y-47873D01*
X50845Y-47873D02*
X51154Y-48267D01*
X50845Y-47267D02*
X51154Y-46873D01*
X50845Y-46873D02*
X51154Y-47267D01*
X52845Y-45267D02*
X53154Y-44873D01*
X52845Y-44873D02*
X53154Y-45267D01*
X52845Y-44267D02*
X53154Y-43873D01*
X52845Y-43873D02*
X53154Y-44267D01*
X34845Y-40267D02*
X35154Y-39873D01*
X34845Y-39873D02*
X35154Y-40267D01*
X42845Y-40267D02*
X43154Y-39873D01*
X42845Y-39873D02*
X43154Y-40267D01*
X64845Y-53267D02*
X65154Y-52873D01*
X64845Y-52873D02*
X65154Y-53267D01*
X24845Y-53267D02*
X25154Y-52873D01*
X24845Y-52873D02*
X25154Y-53267D01*
X24845Y-32267D02*
X25154Y-31873D01*
X24845Y-31873D02*
X25154Y-32267D01*
X64845Y-32267D02*
X65154Y-31873D01*
X64845Y-31873D02*
X65154Y-32267D01*
X64845Y-41267D02*
X65154Y-40873D01*
X64845Y-40873D02*
X65154Y-41267D01*
X63845Y-42267D02*
X64154Y-41873D01*
X63845Y-41873D02*
X64154Y-42267D01*
X65845Y-34267D02*
X66154Y-33873D01*
X65845Y-33873D02*
X66154Y-34267D01*
X44845Y-34267D02*
X45154Y-33873D01*
X44845Y-33873D02*
X45154Y-34267D01*
X60845Y-35267D02*
X61154Y-34873D01*
X60845Y-34873D02*
X61154Y-35267D01*
X27845Y-38267D02*
X28154Y-37873D01*
X27845Y-37873D02*
X28154Y-38267D01*
X28845Y-39267D02*
X29154Y-38873D01*
X28845Y-38873D02*
X29154Y-39267D01*
X29845Y-40267D02*
X30154Y-39873D01*
X29845Y-39873D02*
X30154Y-40267D01*
X41845Y-41267D02*
X42154Y-40873D01*
X41845Y-40873D02*
X42154Y-41267D01*
X38845Y-46267D02*
X39154Y-45873D01*
X38845Y-45873D02*
X39154Y-46267D01*
X38845Y-45267D02*
X39154Y-44873D01*
X38845Y-44873D02*
X39154Y-45267D01*
X38845Y-44267D02*
X39154Y-43873D01*
X38845Y-43873D02*
X39154Y-44267D01*
X38845Y-43267D02*
X39154Y-42873D01*
X38845Y-42873D02*
X39154Y-43267D01*
X63845Y-47267D02*
X64154Y-46873D01*
X63845Y-46873D02*
X64154Y-47267D01*
X40845Y-42267D02*
X41154Y-41873D01*
X40845Y-41873D02*
X41154Y-42267D01*
X39845Y-42267D02*
X40154Y-41873D01*
X39845Y-41873D02*
X40154Y-42267D01*
X60845Y-49267D02*
X61154Y-48873D01*
X60845Y-48873D02*
X61154Y-49267D01*
X48845Y-49267D02*
X49154Y-48873D01*
X48845Y-48873D02*
X49154Y-49267D01*
X50845Y-36267D02*
X51154Y-35873D01*
X50845Y-35873D02*
X51154Y-36267D01*
X40845Y-49267D02*
X41154Y-48873D01*
X40845Y-48873D02*
X41154Y-49267D01*
X27845Y-49267D02*
X28154Y-48873D01*
X27845Y-48873D02*
X28154Y-49267D01*
X32845Y-44267D02*
X33154Y-43873D01*
X32845Y-43873D02*
X33154Y-44267D01*
X41845Y-43267D02*
X42154Y-42873D01*
X41845Y-42873D02*
X42154Y-43267D01*
X41845Y-44267D02*
X42154Y-43873D01*
X41845Y-43873D02*
X42154Y-44267D01*
X41845Y-45267D02*
X42154Y-44873D01*
X41845Y-44873D02*
X42154Y-45267D01*
X41845Y-46267D02*
X42154Y-45873D01*
X41845Y-45873D02*
X42154Y-46267D01*
X35845Y-46267D02*
X36154Y-45873D01*
X35845Y-45873D02*
X36154Y-46267D01*
X35845Y-45267D02*
X36154Y-44873D01*
X35845Y-44873D02*
X36154Y-45267D01*
X35845Y-44267D02*
X36154Y-43873D01*
X35845Y-43873D02*
X36154Y-44267D01*
X35845Y-43267D02*
X36154Y-42873D01*
X35845Y-42873D02*
X36154Y-43267D01*
X62845Y-43267D02*
X63154Y-42873D01*
X62845Y-42873D02*
X63154Y-43267D01*
X62845Y-42267D02*
X63154Y-41873D01*
X62845Y-41873D02*
X63154Y-42267D01*
X51845Y-42267D02*
X52154Y-41873D01*
X51845Y-41873D02*
X52154Y-42267D01*
X59845Y-43267D02*
X60154Y-42873D01*
X59845Y-42873D02*
X60154Y-43267D01*
X52845Y-34267D02*
X53154Y-33873D01*
X52845Y-33873D02*
X53154Y-34267D01*
X56845Y-35267D02*
X57154Y-34873D01*
X56845Y-34873D02*
X57154Y-35267D01*
X56845Y-36267D02*
X57154Y-35873D01*
X56845Y-35873D02*
X57154Y-36267D01*
X56845Y-37267D02*
X57154Y-36873D01*
X56845Y-36873D02*
X57154Y-37267D01*
X56845Y-38267D02*
X57154Y-37873D01*
X56845Y-37873D02*
X57154Y-38267D01*
X56845Y-39267D02*
X57154Y-38873D01*
X56845Y-38873D02*
X57154Y-39267D01*
X56845Y-40267D02*
X57154Y-39873D01*
X56845Y-39873D02*
X57154Y-40267D01*
X56845Y-44267D02*
X57154Y-43873D01*
X56845Y-43873D02*
X57154Y-44267D01*
X56845Y-45267D02*
X57154Y-44873D01*
X56845Y-44873D02*
X57154Y-45267D01*
X56845Y-46267D02*
X57154Y-45873D01*
X56845Y-45873D02*
X57154Y-46267D01*
X56845Y-47267D02*
X57154Y-46873D01*
X56845Y-46873D02*
X57154Y-47267D01*
X56845Y-48267D02*
X57154Y-47873D01*
X56845Y-47873D02*
X57154Y-48267D01*
X55845Y-48267D02*
X56154Y-47873D01*
X55845Y-47873D02*
X56154Y-48267D01*
X55845Y-47267D02*
X56154Y-46873D01*
X55845Y-46873D02*
X56154Y-47267D01*
X55845Y-46267D02*
X56154Y-45873D01*
X55845Y-45873D02*
X56154Y-46267D01*
X55845Y-45267D02*
X56154Y-44873D01*
X55845Y-44873D02*
X56154Y-45267D01*
X55845Y-44267D02*
X56154Y-43873D01*
X55845Y-43873D02*
X56154Y-44267D01*
X56845Y-43267D02*
X57154Y-42873D01*
X56845Y-42873D02*
X57154Y-43267D01*
X55845Y-43267D02*
X56154Y-42873D01*
X55845Y-42873D02*
X56154Y-43267D01*
X56845Y-42267D02*
X57154Y-41873D01*
X56845Y-41873D02*
X57154Y-42267D01*
X55845Y-41267D02*
X56154Y-40873D01*
X55845Y-40873D02*
X56154Y-41267D01*
X55845Y-40267D02*
X56154Y-39873D01*
X55845Y-39873D02*
X56154Y-40267D01*
X55845Y-39267D02*
X56154Y-38873D01*
X55845Y-38873D02*
X56154Y-39267D01*
X55845Y-38267D02*
X56154Y-37873D01*
X55845Y-37873D02*
X56154Y-38267D01*
X55845Y-37267D02*
X56154Y-36873D01*
X55845Y-36873D02*
X56154Y-37267D01*
X55845Y-36267D02*
X56154Y-35873D01*
X55845Y-35873D02*
X56154Y-36267D01*
X55845Y-35267D02*
X56154Y-34873D01*
X55845Y-34873D02*
X56154Y-35267D01*
X52845Y-35267D02*
X53154Y-34873D01*
X52845Y-34873D02*
X53154Y-35267D01*
X50845Y-37267D02*
X51154Y-36873D01*
X50845Y-36873D02*
X51154Y-37267D01*
X53845Y-45267D02*
X54154Y-44873D01*
X53845Y-44873D02*
X54154Y-45267D01*
X53845Y-44267D02*
X54154Y-43873D01*
X53845Y-43873D02*
X54154Y-44267D01*
X53845Y-43267D02*
X54154Y-42873D01*
X53845Y-42873D02*
X54154Y-43267D01*
X51845Y-43267D02*
X52154Y-42873D01*
X51845Y-42873D02*
X52154Y-43267D01*
X51845Y-44267D02*
X52154Y-43873D01*
X51845Y-43873D02*
X52154Y-44267D01*
X51845Y-45267D02*
X52154Y-44873D01*
X51845Y-44873D02*
X52154Y-45267D01*
X51845Y-46267D02*
X52154Y-45873D01*
X51845Y-45873D02*
X52154Y-46267D01*
X51845Y-47267D02*
X52154Y-46873D01*
X51845Y-46873D02*
X52154Y-47267D01*
X51845Y-48267D02*
X52154Y-47873D01*
X51845Y-47873D02*
X52154Y-48267D01*
X48845Y-43267D02*
X49154Y-42873D01*
X48845Y-42873D02*
X49154Y-43267D01*
X48845Y-44267D02*
X49154Y-43873D01*
X48845Y-43873D02*
X49154Y-44267D01*
X48845Y-45267D02*
X49154Y-44873D01*
X48845Y-44873D02*
X49154Y-45267D01*
X48845Y-46267D02*
X49154Y-45873D01*
X48845Y-45873D02*
X49154Y-46267D01*
X49845Y-47267D02*
X50154Y-46873D01*
X49845Y-46873D02*
X50154Y-47267D01*
X48845Y-48267D02*
X49154Y-47873D01*
X48845Y-47873D02*
X49154Y-48267D01*
X35845Y-48267D02*
X36154Y-47873D01*
X35845Y-47873D02*
X36154Y-48267D01*
X40845Y-48267D02*
X41154Y-47873D01*
X40845Y-47873D02*
X41154Y-48267D01*
X34845Y-49267D02*
X35154Y-48873D01*
X34845Y-48873D02*
X35154Y-49267D01*
X47845Y-49267D02*
X48154Y-48873D01*
X47845Y-48873D02*
X48154Y-49267D01*
X42845Y-49267D02*
X43154Y-48873D01*
X42845Y-48873D02*
X43154Y-49267D01*
X45845Y-49267D02*
X46154Y-48873D01*
X45845Y-48873D02*
X46154Y-49267D01*
X44845Y-49267D02*
X45154Y-48873D01*
X44845Y-48873D02*
X45154Y-49267D01*
X45845Y-48267D02*
X46154Y-47873D01*
X45845Y-47873D02*
X46154Y-48267D01*
X45845Y-47267D02*
X46154Y-46873D01*
X45845Y-46873D02*
X46154Y-47267D01*
X44845Y-47267D02*
X45154Y-46873D01*
X44845Y-46873D02*
X45154Y-47267D01*
X45845Y-46267D02*
X46154Y-45873D01*
X45845Y-45873D02*
X46154Y-46267D01*
X44845Y-46267D02*
X45154Y-45873D01*
X44845Y-45873D02*
X45154Y-46267D01*
X45845Y-45267D02*
X46154Y-44873D01*
X45845Y-44873D02*
X46154Y-45267D01*
X44845Y-45267D02*
X45154Y-44873D01*
X44845Y-44873D02*
X45154Y-45267D01*
X45845Y-44267D02*
X46154Y-43873D01*
X45845Y-43873D02*
X46154Y-44267D01*
X44845Y-44267D02*
X45154Y-43873D01*
X44845Y-43873D02*
X45154Y-44267D01*
X45845Y-43267D02*
X46154Y-42873D01*
X45845Y-42873D02*
X46154Y-43267D01*
X44845Y-43267D02*
X45154Y-42873D01*
X44845Y-42873D02*
X45154Y-43267D01*
X44845Y-42267D02*
X45154Y-41873D01*
X44845Y-41873D02*
X45154Y-42267D01*
X45845Y-42267D02*
X46154Y-41873D01*
X45845Y-41873D02*
X46154Y-42267D01*
X44845Y-41267D02*
X45154Y-40873D01*
X44845Y-40873D02*
X45154Y-41267D01*
X45845Y-41267D02*
X46154Y-40873D01*
X45845Y-40873D02*
X46154Y-41267D01*
X48845Y-41267D02*
X49154Y-40873D01*
X48845Y-40873D02*
X49154Y-41267D01*
X47845Y-41267D02*
X48154Y-40873D01*
X47845Y-40873D02*
X48154Y-41267D01*
X47845Y-40267D02*
X48154Y-39873D01*
X47845Y-39873D02*
X48154Y-40267D01*
X32845Y-49267D02*
X33154Y-48873D01*
X32845Y-48873D02*
X33154Y-49267D01*
X32845Y-48267D02*
X33154Y-47873D01*
X32845Y-47873D02*
X33154Y-48267D01*
X32845Y-47267D02*
X33154Y-46873D01*
X32845Y-46873D02*
X33154Y-47267D01*
X31845Y-47267D02*
X32154Y-46873D01*
X31845Y-46873D02*
X32154Y-47267D01*
X31845Y-49267D02*
X32154Y-48873D01*
X31845Y-48873D02*
X32154Y-49267D01*
X29845Y-49267D02*
X30154Y-48873D01*
X29845Y-48873D02*
X30154Y-49267D01*
X27845Y-48267D02*
X28154Y-47873D01*
X27845Y-47873D02*
X28154Y-48267D01*
X29845Y-47267D02*
X30154Y-46873D01*
X29845Y-46873D02*
X30154Y-47267D01*
X34845Y-41267D02*
X35154Y-40873D01*
X34845Y-40873D02*
X35154Y-41267D01*
X32845Y-41267D02*
X33154Y-40873D01*
X32845Y-40873D02*
X33154Y-41267D01*
X32845Y-42267D02*
X33154Y-41873D01*
X32845Y-41873D02*
X33154Y-42267D01*
X32845Y-43267D02*
X33154Y-42873D01*
X32845Y-42873D02*
X33154Y-43267D01*
X32845Y-45267D02*
X33154Y-44873D01*
X32845Y-44873D02*
X33154Y-45267D01*
X32845Y-46267D02*
X33154Y-45873D01*
X32845Y-45873D02*
X33154Y-46267D01*
X31845Y-41267D02*
X32154Y-40873D01*
X31845Y-40873D02*
X32154Y-41267D01*
X31845Y-42267D02*
X32154Y-41873D01*
X31845Y-41873D02*
X32154Y-42267D01*
X31845Y-43267D02*
X32154Y-42873D01*
X31845Y-42873D02*
X32154Y-43267D01*
X31845Y-44267D02*
X32154Y-43873D01*
X31845Y-43873D02*
X32154Y-44267D01*
X31845Y-45267D02*
X32154Y-44873D01*
X31845Y-44873D02*
X32154Y-45267D01*
X31845Y-46267D02*
X32154Y-45873D01*
X31845Y-45873D02*
X32154Y-46267D01*
X28845Y-46267D02*
X29154Y-45873D01*
X28845Y-45873D02*
X29154Y-46267D01*
X28845Y-45267D02*
X29154Y-44873D01*
X28845Y-44873D02*
X29154Y-45267D01*
X28845Y-44267D02*
X29154Y-43873D01*
X28845Y-43873D02*
X29154Y-44267D01*
X28845Y-43267D02*
X29154Y-42873D01*
X28845Y-42873D02*
X29154Y-43267D01*
X27845Y-42267D02*
X28154Y-41873D01*
X27845Y-41873D02*
X28154Y-42267D01*
X28845Y-41267D02*
X29154Y-40873D01*
X28845Y-40873D02*
X29154Y-41267D01*
X51845Y-42267D02*
X52154Y-41873D01*
X51845Y-41873D02*
X52154Y-42267D01*
X49845Y-41267D02*
X50154Y-40873D01*
X49845Y-40873D02*
X50154Y-41267D01*
M02*
